<?xml version="1.0" encoding="utf-8"?>
<!-- Generator: Adobe Illustrator 26.4.1, SVG Export Plug-In . SVG Version: 6.00 Build 0)  -->
<svg version="1.1" id="Layer_2_00000041259373252809787240000013999831017885440907_"
	 xmlns="http://www.w3.org/2000/svg" xmlns:xlink="http://www.w3.org/1999/xlink" x="0px" y="0px" viewBox="0 0 83.9 36.2"
	 style="enable-background:new 0 0 83.9 36.2;" xml:space="preserve">
<style type="text/css">
	.st0{fill:none;}
	.st1{fill:#F48696;}
</style>
<g id="Layer_1-2">
	<path class="st0" d="M36.2,18.1c0,0.1,0,0.2,0,0.3c0,1.8-0.3,3.5-0.8,5.2c-0.6,1.9-1.5,3.7-2.7,5.3l0,0c-2.9,3.9-7.4,6.7-12.5,7.2
		l0,0c-0.7,0.1-1.3,0.1-2,0.1c-1.3,0-2.7-0.2-3.9-0.4c-1.7-0.4-3.4-1-4.9-1.9c-1-0.6-2-1.3-3-2.1c-1.1-0.9-2-1.9-2.8-3
		C2.9,28,2.3,27,1.8,26.1c-0.6-1.2-1.1-2.5-1.4-3.9l0,0C0.2,21.1,0,19.9,0,18.7c0-0.2,0-0.4,0-0.6c0-1.5,0.2-3,0.5-4.4l0,0
		c0.4-1.8,1.1-3.4,2.1-4.9C5.7,3.6,11.3,0.1,17.8,0c0.1,0,0.2,0,0.3,0c1.7,0,3.4,0.2,5,0.7s3.2,1.1,4.6,2c1,0.6,1.9,1.3,2.8,2.1
		c1,0.9,1.9,2,2.7,3.1c0.6,0.9,1.1,1.8,1.6,2.8l0,0c0.6,1.2,1,2.6,1.2,4C36.1,15.9,36.2,17,36.2,18.1z"/>
	<g>
		<path class="st1" d="M17.8,0L2.6,8.8C5.7,3.6,11.3,0.1,17.8,0z"/>
		<path class="st1" d="M27.7,2.7L0,18.7c0-0.2,0-0.4,0-0.6c0-1.5,0.2-3,0.5-4.4l0,0L23,0.7C24.7,1.1,26.3,1.8,27.7,2.7z"/>
		<path class="st1" d="M1.8,26.1L33.2,8c-0.8-1.2-1.7-2.2-2.7-3.1l-30,17.3l0,0L1.8,26.1z"/>
		<path class="st1" d="M35.9,14.8L6.4,31.9c-1.1-0.9-2-1.9-2.8-3l31.2-18C35.3,12.1,35.7,13.4,35.9,14.8z"/>
		<path class="st1" d="M36.2,18.4c0,1.8-0.3,3.5-0.8,5.2L14.2,35.8c-1.7-0.4-3.4-1-4.9-1.9L36.2,18.4z"/>
		<path class="st1" d="M32.7,28.9c-2.9,3.9-7.4,6.7-12.5,7.2L32.7,28.9z"/>
	</g>
	<g>
		<path class="st1" d="M47.5,5.4c0-0.7,0.2-1.3,0.6-1.7s1-0.7,1.7-0.7s1.3,0.2,1.7,0.7c0.4,0.4,0.7,1,0.7,1.7S52,6.7,51.5,7.1
			s-1,0.7-1.7,0.7s-1.3-0.2-1.7-0.7S47.5,6.1,47.5,5.4z M47.7,26.2V9.7H52v16.5H47.7L47.7,26.2z"/>
		<path class="st1" d="M63.4,26.2V16c0-0.8-0.2-1.4-0.7-1.8c-0.5-0.4-1.1-0.6-1.8-0.6c-0.3,0-0.7,0.1-1,0.2s-0.6,0.4-0.8,0.6
			s-0.5,0.5-0.7,0.8S58,15.7,57.9,16v10.2h-4.4V3.1h4.4v7.1c0.5-0.2,1-0.4,1.6-0.6c0.6-0.1,1.2-0.2,1.9-0.2c0.9,0,1.7,0.1,2.5,0.4
			c0.8,0.3,1.5,0.6,2,1.2c0.6,0.5,1,1.1,1.4,1.9s0.5,1.6,0.5,2.7v10.6L63.4,26.2L63.4,26.2z"/>
		<path class="st1" d="M73.4,33.2h-4.3V10.6c1.2-0.4,2.2-0.6,3.2-0.8s1.9-0.3,2.8-0.3c1.3,0,2.6,0.2,3.6,0.6c1.1,0.4,2,1,2.8,1.8
			s1.4,1.6,1.8,2.7s0.6,2.2,0.6,3.4c0,1.5-0.2,2.7-0.8,3.8c-0.5,1.1-1.2,1.9-2,2.6s-1.7,1.2-2.8,1.5c-1,0.3-2.1,0.5-3.2,0.5
			c-0.3,0-0.6,0-0.9,0s-0.6-0.1-0.9-0.1L73.4,33.2L73.4,33.2z M79.3,17.9c0-1.3-0.4-2.3-1.1-3.1s-1.7-1.2-3-1.2c-0.3,0-0.7,0-1,0
			s-0.6,0.1-0.9,0.1V22c0.3,0.1,0.6,0.1,0.8,0.2c0.3,0.1,0.5,0.1,0.8,0.1c1.3,0,2.4-0.4,3.2-1.1S79.3,19.3,79.3,17.9L79.3,17.9z"/>
	</g>
</g>
</svg>
